<svg xmlns="http://www.w3.org/2000/svg" viewBox="0 0 812.6 422.85"><path d="M172.28,92.45a20.47,20.47,0,0,1,0,14.62h108a20.47,20.47,0,0,1,0-14.62Z" fill="#e5ae89"/><path d="M97.4,239.14a20.44,20.44,0,0,1-12.79,7.33l52.88,91.6A20.42,20.42,0,0,1,150.41,331Z" fill="#e5ae89"/><path d="M96.9,212.72,150.41,120a20.43,20.43,0,0,1-12.84-7L83.93,205.9A20.48,20.48,0,0,1,96.9,212.72Z" fill="#e5ae89"/><path d="M280.25,358.54a20.47,20.47,0,0,1,0-14.62h-108a20.47,20.47,0,0,1,0,14.62Z" fill="#e5ae89"/><path d="M311.44,124.65a28.93,28.93,0,0,1,11.63,2.41L315,113a20.47,20.47,0,0,1-13.06,7l3.06,5.3A29.65,29.65,0,0,1,311.44,124.65Z" fill="#e5ae89"/><path d="M311.15,326.88a29,29,0,0,0,11.64-2.41l-8.11,14a20.41,20.41,0,0,0-13.06-7l3.06-5.31A29.63,29.63,0,0,0,311.15,326.88Z" fill="#e5ae89"/><path d="M61,226.4a20.33,20.33,0,0,1,1.64-8H7.52a7.28,7.28,0,0,0-2.15.32A7.49,7.49,0,0,0,1,222.2a7.78,7.78,0,0,0-.69,6A7.69,7.69,0,0,0,1,229.88a7.55,7.55,0,0,0,6.48,3.83H62.33a20.45,20.45,0,0,1-1.06-3.83A21,21,0,0,1,61,226.4Z" fill="#e5ad88"/><path d="M368.22,12.91a20.57,20.57,0,0,0-1.65-8h55.1a7.28,7.28,0,0,1,2.15.32,7.5,7.5,0,0,1,4.36,3.51,7.78,7.78,0,0,1,.69,6,7.69,7.69,0,0,1-.69,1.64,7.51,7.51,0,0,1-6.48,3.83H366.87a20.53,20.53,0,0,0,1.05-3.84A20.92,20.92,0,0,0,368.22,12.91Z" fill="#e5ad88"/><path d="M142.46,82.46a20.34,20.34,0,0,1,3.86-1.72,19.35,19.35,0,0,1,3.93-.87l-2.65-4.6L123.54,33.61l-.78-1.35a.22.22,0,0,0-.05-.08v0h0a7.32,7.32,0,0,0-1.36-1.7,7.48,7.48,0,0,0-5.22-2,7.77,7.77,0,0,0-5.57,2.42,8.07,8.07,0,0,0-1.08,1.42,7.53,7.53,0,0,0-.07,7.53l.86,1.48L134.3,83l2.51,4.34a20.5,20.5,0,0,1,5.65-4.83Z" fill="#e5ad88"/><path d="M143.71,369.18a20.44,20.44,0,0,1-3.42-2.47,20.05,20.05,0,0,1-2.72-3l-2.65,4.6-24,41.66-.78,1.35a.35.35,0,0,0,0,.08l0,0h0a7.61,7.61,0,0,0-.8,2,7.5,7.5,0,0,0,.87,5.53,7.79,7.79,0,0,0,4.88,3.62,7.66,7.66,0,0,0,1.77.22,7.5,7.5,0,0,0,6.55-3.7l.86-1.48L148.21,376l2.51-4.34a20.23,20.23,0,0,1-3.85-1A19.24,19.24,0,0,1,143.71,369.18Z" fill="#e5ad88"/><path d="M301.42,78.93a20.93,20.93,0,0,1,3.68.94,20.43,20.43,0,0,1,3.33,1.55,20.16,20.16,0,0,1,3,2.11,20.53,20.53,0,0,1,2.65,2.71l2.3-4,26.05-45.14,2.3-4a20.53,20.53,0,0,1-10-4.6,20.53,20.53,0,0,1-2.65-2.71l-2.3,4L303.72,75Z" fill="#e5ad88"/><path d="M172.28,92.45a20.47,20.47,0,0,1,0,14.62h108a20.47,20.47,0,0,1,0-14.62Z" fill="#e5ae89"/><path d="M97.4,239.14a20.44,20.44,0,0,1-12.79,7.33l52.88,91.6A20.42,20.42,0,0,1,150.41,331Z" fill="#e5ae89"/><path d="M96.9,212.72,150.41,120a20.43,20.43,0,0,1-12.84-7L83.93,205.9A20.48,20.48,0,0,1,96.9,212.72Z" fill="#e5ae89"/><path d="M280.25,358.54a20.47,20.47,0,0,1,0-14.62h-108a20.47,20.47,0,0,1,0,14.62Z" fill="#e5ae89"/><path d="M311.44,124.65a28.93,28.93,0,0,1,11.63,2.41L315,113a20.47,20.47,0,0,1-13.06,7l3.06,5.3A29.65,29.65,0,0,1,311.44,124.65Z" fill="#e5ae89"/><path d="M61,226.4a20.33,20.33,0,0,1,1.64-8H7.52a7.28,7.28,0,0,0-2.15.32A7.49,7.49,0,0,0,1,222.2a7.78,7.78,0,0,0-.69,6A7.69,7.69,0,0,0,1,229.88a7.55,7.55,0,0,0,6.48,3.83H62.33a20.45,20.45,0,0,1-1.06-3.83A21,21,0,0,1,61,226.4Z" fill="#e5ad88"/><path d="M368.22,12.91a20.57,20.57,0,0,0-1.65-8h55.1a7.28,7.28,0,0,1,2.15.32,7.5,7.5,0,0,1,4.36,3.51,7.78,7.78,0,0,1,.69,6,7.69,7.69,0,0,1-.69,1.64,7.51,7.51,0,0,1-6.48,3.83H366.87a20.53,20.53,0,0,0,1.05-3.84A20.92,20.92,0,0,0,368.22,12.91Z" fill="#e5ad88"/><path d="M142.46,82.46a20.34,20.34,0,0,1,3.86-1.72,19.35,19.35,0,0,1,3.93-.87l-2.65-4.6L123.54,33.61l-.78-1.35a.22.22,0,0,0-.05-.08v0h0a7.32,7.32,0,0,0-1.36-1.7,7.48,7.48,0,0,0-5.22-2,7.77,7.77,0,0,0-5.57,2.42,8.07,8.07,0,0,0-1.08,1.42,7.53,7.53,0,0,0-.07,7.53l.86,1.48L134.3,83l2.51,4.34a20.5,20.5,0,0,1,5.65-4.83Z" fill="#e5ad88"/><path d="M143.71,369.18a20.44,20.44,0,0,1-3.42-2.47,20.05,20.05,0,0,1-2.72-3l-2.65,4.6-24,41.66-.78,1.35a.35.35,0,0,0,0,.08l0,0h0a7.61,7.61,0,0,0-.8,2,7.5,7.5,0,0,0,.87,5.53,7.79,7.79,0,0,0,4.88,3.62,7.66,7.66,0,0,0,1.77.22,7.5,7.5,0,0,0,6.55-3.7l.86-1.48L148.21,376l2.51-4.34a20.23,20.23,0,0,1-3.85-1A19.24,19.24,0,0,1,143.71,369.18Z" fill="#e5ad88"/><path d="M301.42,78.93a20.93,20.93,0,0,1,3.68.94,20.43,20.43,0,0,1,3.33,1.55,20.16,20.16,0,0,1,3,2.11,20.53,20.53,0,0,1,2.65,2.71l2.3-4,26.05-45.14,2.3-4a20.53,20.53,0,0,1-10-4.6,20.53,20.53,0,0,1-2.65-2.71l-2.3,4L303.72,75Z" fill="#e5ad88"/><path d="M235.91,343.92,224,358.54h56.29a20.47,20.47,0,0,1,0-14.62Z" fill="#cc9b7a"/><path d="M236,92.45l-12,14.62h56.21a20.47,20.47,0,0,1,0-14.62Z" fill="#cc9b7a"/><path d="M85,204l-1.11,1.91a20.48,20.48,0,0,1,13,6.82l45.65-79.07Z" fill="#cc9b7a"/><path d="M113.56,296.61l23.93,41.46A20.42,20.42,0,0,1,150.41,331l-26.88-46.55Z" fill="#cc9b7a"/><path d="M305.69,80.12a19.5,19.5,0,0,1,2.74,1.3,20.16,20.16,0,0,1,3,2.11,20.53,20.53,0,0,1,2.65,2.71l2.3-4c4.66-8.07,21.4-37.07,26.05-45.14l2.3-4c-.19,0-.37-.08-.55-.12Z" fill="#cc977a"/><path d="M423.82,5.19a7.28,7.28,0,0,0-2.15-.32H404.18L391.63,20.21H421.7a7.51,7.51,0,0,0,6.48-3.83,7.69,7.69,0,0,0,.69-1.64,7.78,7.78,0,0,0-.69-6A7.5,7.5,0,0,0,423.82,5.19Z" fill="#cc977a"/><path d="M135.06,53.57l-10.38,12.7L134.3,83l2.51,4.34a20.5,20.5,0,0,1,5.65-4.83,20.34,20.34,0,0,1,3.86-1.72,19.35,19.35,0,0,1,3.93-.87l-2.65-4.6Z" fill="#cc977a"/><path d="M62.62,218.36H39.18L26.64,233.71H62.33a20.45,20.45,0,0,1-1.06-3.83,20.49,20.49,0,0,1,1.35-11.52Z" fill="#cc977a"/><path d="M110.93,420.18a7.79,7.79,0,0,0,4,2.45,7.66,7.66,0,0,0,1.77.22,7.5,7.5,0,0,0,6.55-3.7l.86-1.48L148.21,376l2.51-4.34-.11,0Z" fill="#cc977a"/><path d="M309.37,124.73c.69,0,1.37-.08,2.07-.08a28.93,28.93,0,0,1,11.63,2.41l-6.46-11.18Z" fill="#cc9b7a"/><path d="M309.86,334.39a20.72,20.72,0,0,1,4.82,4.13l8.11-14a28.86,28.86,0,0,1-6.4,1.94Z" fill="#cc9b7a"/><circle cx="299.17" cy="99.6" r="13.52" fill="#9da3a5"/><circle cx="348.22" cy="13.52" r="13.52" fill="#9da3a5"/><circle cx="299.24" cy="350.86" r="13.52" fill="#9da3a5"/><circle cx="81.01" cy="226.71" r="13.52" fill="#9da3a5"/><circle cx="152.92" cy="350.94" r="13.52" fill="#9da3a5"/><circle cx="153.17" cy="99.76" r="13.52" fill="#9da3a5"/><path d="M294.17,109.12a13.55,13.55,0,0,1-5.69-1.27,13.51,13.51,0,1,0,16.39-20.5,13.51,13.51,0,0,1-10.7,21.77Z" fill="#848889"/><path d="M353.91,1.27A13.5,13.5,0,0,1,343.22,23a13.59,13.59,0,0,1-5.7-1.27,13.51,13.51,0,1,0,16.39-20.5Z" fill="#848889"/><path d="M304.93,338.61a13.5,13.5,0,0,1-16.38,20.5,13.51,13.51,0,1,0,16.38-20.5Z" fill="#848889"/><path d="M86.71,214.47A13.5,13.5,0,0,1,70.32,235a13.51,13.51,0,1,0,16.39-20.49Z" fill="#848889"/><path d="M158.61,338.69a13.5,13.5,0,0,1-16.38,20.5,13.51,13.51,0,1,0,16.38-20.5Z" fill="#848889"/><path d="M158.86,87.51A13.5,13.5,0,0,1,142.47,108a13.51,13.51,0,1,0,16.39-20.5Z" fill="#848889"/><path d="M287,289.9a9.49,9.49,0,0,1-9.45,9.66,8.78,8.78,0,0,1-5.35-1.78,12.64,12.64,0,0,1-3.89-4.94l-13-30.87H190.37l-12.81,31.08a9.11,9.11,0,0,1-8.82,6.51c-2.94,0-5.18-.76-6.72-2.31a8.5,8.5,0,0,1-2.31-6.3,26,26,0,0,1,.42-3.36l53.55-129.78a11.74,11.74,0,0,1,4.1-5.14,8.42,8.42,0,0,1,6-1.37,10,10,0,0,1,5.67,1.68,9.06,9.06,0,0,1,3.57,4.83l53.34,128.1A12.58,12.58,0,0,1,287,289.9Zm-88.62-47h48.93l-24.57-58.8Z" fill="#9da3a5"/><path d="M324.35,296a9.68,9.68,0,0,1-7.14,2.94,9.33,9.33,0,0,1-7-2.94,9.88,9.88,0,0,1-2.84-7.14V153.61a10,10,0,0,1,10.08-10.08,9.39,9.39,0,0,1,7,2.94,9.92,9.92,0,0,1,2.83,7.14V288.85A9.69,9.69,0,0,1,324.35,296Zm0,0a9.68,9.68,0,0,1-7.14,2.94,9.33,9.33,0,0,1-7-2.94,9.88,9.88,0,0,1-2.84-7.14V153.61a10,10,0,0,1,10.08-10.08,9.39,9.39,0,0,1,7,2.94,9.92,9.92,0,0,1,2.83,7.14V288.85A9.69,9.69,0,0,1,324.35,296Z" fill="#9da3a5"/><path d="M377.48,296a9.68,9.68,0,0,1-7.14,2.94,9.33,9.33,0,0,1-7-2.94,9.88,9.88,0,0,1-2.84-7.14V153.61a10,10,0,0,1,10.08-10.08,9.39,9.39,0,0,1,7,2.94,9.92,9.92,0,0,1,2.83,7.14V288.85A9.69,9.69,0,0,1,377.48,296Z" fill="#9da3a5"/><path d="M412,171.78c-1.75-1.47-2.62-3.81-2.62-7v-3.36q0-5,2.83-7.14c1.89-1.39,4.8-2.1,8.72-2.1s6.75.74,8.5,2.21,2.63,3.82,2.63,7v3.36c0,3.36-.91,5.75-2.73,7.14s-4.69,2.1-8.61,2.1S413.77,173.25,412,171.78ZM428,296a9.58,9.58,0,0,1-7.24,2.94,9.35,9.35,0,0,1-7-2.94,9.87,9.87,0,0,1-2.83-7.14V197.92a9.93,9.93,0,0,1,2.83-7.14,9.39,9.39,0,0,1,7-2.94,9.62,9.62,0,0,1,7.24,2.94,9.94,9.94,0,0,1,2.84,7.14v90.93A9.88,9.88,0,0,1,428,296Z" fill="#9da3a5"/><path d="M556.08,190.26a10.09,10.09,0,0,1,2.84,7.45v91.14a9.88,9.88,0,0,1-2.84,7.14,9.58,9.58,0,0,1-7.24,2.94,9.46,9.46,0,0,1-7.14-2.83,10,10,0,0,1-2.73-7.25v-5.46a44.94,44.94,0,0,1-14.91,12.5A41.93,41.93,0,0,1,503.69,301a47.56,47.56,0,0,1-25.94-7.35,50.36,50.36,0,0,1-18.27-20.47,69.16,69.16,0,0,1,0-59,50.8,50.8,0,0,1,18.17-20.48,46.38,46.38,0,0,1,25.41-7.35A47,47,0,0,1,523.74,191,43,43,0,0,1,539,202.75v-5a10.4,10.4,0,0,1,2.73-7.35,9.29,9.29,0,0,1,7.14-2.94A9.8,9.8,0,0,1,556.08,190.26Zm-32.55,87.25a34.06,34.06,0,0,0,12-13.86,47.84,47.84,0,0,0,0-39.69,34.82,34.82,0,0,0-12-14A30.72,30.72,0,0,0,506,204.85a31.21,31.21,0,0,0-17.54,5,34.06,34.06,0,0,0-12,13.86,48.43,48.43,0,0,0,0,39.9,34.06,34.06,0,0,0,12,13.86,33,33,0,0,0,35.07,0Z" fill="#9da3a5"/><path d="M687.75,190.26a10.09,10.09,0,0,1,2.84,7.45v92.4q0,17-7.25,28.46a43.49,43.49,0,0,1-19.63,16.9,68.6,68.6,0,0,1-27.93,5.46A79,79,0,0,1,616.14,338q-11.24-2.94-14.38-6.09-6.51-3.36-6.51-8.4a9.68,9.68,0,0,1,.84-3.36c1.54-3.5,4.12-5.25,7.77-5.25a15.94,15.94,0,0,1,5.88,1.26q16.8,6.51,26.25,6.51,16.8,0,25.72-8.08t8.93-22.16V281.08q-4.41,8.19-14.81,14.07A43.92,43.92,0,0,1,633.89,301a49.49,49.49,0,0,1-26.46-7.35,51.08,51.08,0,0,1-18.8-20.47,67.23,67.23,0,0,1,0-59,51.48,51.48,0,0,1,18.69-20.48,48.67,48.67,0,0,1,26.15-7.35,47.84,47.84,0,0,1,37.17,18.06v-6.72a10.4,10.4,0,0,1,2.73-7.35,9.28,9.28,0,0,1,7.14-2.94A9.8,9.8,0,0,1,687.75,190.26Zm-33.28,87.36A33.83,33.83,0,0,0,667,263.76a43.79,43.79,0,0,0,4.52-20.06A43.18,43.18,0,0,0,667,223.75a34.73,34.73,0,0,0-12.49-13.86,33.53,33.53,0,0,0-18.27-5,33.11,33.11,0,0,0-18.06,5,34.61,34.61,0,0,0-12.5,14,45.92,45.92,0,0,0,0,39.69,34.58,34.58,0,0,0,12.5,14,33.11,33.11,0,0,0,18.06,5A34.06,34.06,0,0,0,654.47,277.62Z" fill="#9da3a5"/><path d="M809.45,246.12a10.06,10.06,0,0,1-6.93,2.62H728.6q1.47,15.35,11.65,24.57t24.89,9.24q10.08,0,16.38-2.94a41.12,41.12,0,0,0,11.13-7.56,11.84,11.84,0,0,1,6.09-1.89,8,8,0,0,1,6,2.52,8.25,8.25,0,0,1,2.42,5.88c0,2.94-1.4,5.61-4.2,8a49.12,49.12,0,0,1-16.17,10.29,53.05,53.05,0,0,1-20.58,4.2q-17,0-29.93-7.14a49.69,49.69,0,0,1-20-19.95,59.14,59.14,0,0,1-7-29q0-17.64,7.24-31a52.51,52.51,0,0,1,19.11-20.48,49.23,49.23,0,0,1,50.72-.21,52.72,52.72,0,0,1,18.9,19.11,54.54,54.54,0,0,1,7.35,27.3A9,9,0,0,1,809.45,246.12Zm-68.67-34.65q-8.61,6.61-11.34,20.47h61.95v-1.68a25.68,25.68,0,0,0-10-18.27,31.61,31.61,0,0,0-20.26-7.14A32.47,32.47,0,0,0,740.78,211.47Z" fill="#9da3a5"/><path d="M415.17,173.33a20.67,20.67,0,0,0,5.57.65c3.92,0,6.79-.69,8.61-2.1s2.73-3.78,2.73-7.14v-3.36a9.34,9.34,0,0,0-1.95-6.36Z" fill="#848889"/><path d="M168,299.54l.71,0a9.11,9.11,0,0,0,8.82-6.51l4.3-10.42Z" fill="#848889"/><path d="M250.18,199.07l-14,17.16,11.13,26.63H214.37L198.75,262h56.51l13,30.87a12.64,12.64,0,0,0,3.89,4.94,8.78,8.78,0,0,0,5.35,1.78A9.49,9.49,0,0,0,287,289.9a12.58,12.58,0,0,0-.63-4Z" fill="#848889"/><path d="M307.34,233.51v55.34a9.88,9.88,0,0,0,2.84,7.14,9.33,9.33,0,0,0,7,2.94,10,10,0,0,0,10.08-10.08V209.11Z" fill="#848889"/><path d="M360.45,233.61V289a9.9,9.9,0,0,0,2.83,7.14,9.39,9.39,0,0,0,7,2.94A10,10,0,0,0,380.4,289V209.21Z" fill="#848889"/><path d="M410.87,252.65v36.2A9.87,9.87,0,0,0,413.7,296a9.35,9.35,0,0,0,7,2.94A9.58,9.58,0,0,0,428,296a9.88,9.88,0,0,0,2.84-7.14v-60.6Z" fill="#848889"/><path d="M539.08,235.15a49.47,49.47,0,0,1,.73,8.55,44.87,44.87,0,0,1-4.31,19.95,34.06,34.06,0,0,1-12,13.86,31.18,31.18,0,0,1-17.53,5,35.68,35.68,0,0,1-5.34-.4l-13.25,16.2A48.86,48.86,0,0,0,503.69,301a41.93,41.93,0,0,0,20.37-5.14A44.94,44.94,0,0,0,539,283.39v5.46a10,10,0,0,0,2.73,7.25,9.46,9.46,0,0,0,7.14,2.83,9.58,9.58,0,0,0,7.24-2.94,9.88,9.88,0,0,0,2.84-7.14v-78Z" fill="#848889"/><path d="M671.22,238.57a50.62,50.62,0,0,1,.26,5.13A43.79,43.79,0,0,1,667,263.76a33.2,33.2,0,0,1-30.76,18.79c-.31,0-.61,0-.92,0l-13.92,17A52.05,52.05,0,0,0,633.89,301a43.92,43.92,0,0,0,21.94-5.88q10.39-5.86,14.81-14.07v11.34q0,14.07-8.93,22.16T636,322.66q-9.45,0-26.25-6.51c-.52-.2-1-.38-1.52-.54l-10.76,13.17a15.36,15.36,0,0,0,4.3,3.12q3.15,3.15,14.38,6.09a79,79,0,0,0,19.64,2.94,68.6,68.6,0,0,0,27.93-5.46,43.49,43.49,0,0,0,19.63-16.9q7.24-11.44,7.25-28.46V214.88Z" fill="#848889"/><path d="M798.74,270.16a11.84,11.84,0,0,0-6.09,1.89,41.12,41.12,0,0,1-11.13,7.56q-6.3,3-16.38,2.94a38,38,0,0,1-15.25-3l-12.27,15Q750.07,301,766.19,301a53.05,53.05,0,0,0,20.58-4.2,49.12,49.12,0,0,0,16.17-10.29c2.8-2.37,4.2-5,4.2-8a8.25,8.25,0,0,0-2.42-5.88A8,8,0,0,0,798.74,270.16Z" fill="#848889"/><path d="M805.05,212.1,791.24,229q.09.63.15,1.26v1.68h-2.56l-13.73,16.8h27.42a10.06,10.06,0,0,0,6.93-2.62,9,9,0,0,0,3.15-6.41,54.54,54.54,0,0,0-7.35-27.3Z" fill="#848889"/></svg>